#N canvas 361 187 1063 652 12;
#X obj 31 18 adc~ 1;
#X obj 32 48 env~;
#X floatatom 32 73 5 0 0 0 - - - 0;
#X obj 33 427 pack f f;
#X obj 33 375 t f;
#X obj 33 461 print;
#X obj 259 553 netsend -u;
#X obj 259 473 loadbang;
#X msg 259 500 connect localhost 5000;
#X msg 336 525 disconnect;
#X obj 395 51 env~;
#X floatatom 395 76 5 0 0 0 - - - 0;
#X obj 401 367 t f;
#X obj 401 453 print;
#X obj 394 25 adc~ 2;
#X obj 401 419 pack f f;
#X msg 479 562 \; pd dsp 1, f 13;
#X msg 33 402 1;
#X msg 401 394 2;
#X obj 286 26 vu 20 200 empty empty -1 -10 0 12 #404040 #000000 1 0;
#X obj 190 161 max;
#X obj 233 115 min;
#X floatatom 195 206 5 0 0 0 - - - 0;
#X floatatom 243 155 5 0 0 0 - - - 0;
#X obj 98 193 - 100;
#X obj 69 289 expr floor(($f1-1.1*$f2)/($f3-$f2)*1024);
#X obj 707 60 vu 20 200 empty empty -1 -10 0 12 #404040 #000000 1 0;
#X obj 611 195 max;
#X obj 654 149 min;
#X floatatom 616 240 5 0 0 0 - - - 0;
#X floatatom 664 189 5 0 0 0 - - - 0;
#X obj 519 227 - 100;
#X obj 490 323 expr floor(($f1-1.1*$f2)/($f3-$f2)*1024);
#X msg 222 625 99;
#X obj 198 600 delay 1000;
#X connect 0 0 1 0;
#X connect 1 0 2 0;
#X connect 2 0 20 0;
#X connect 2 0 21 0;
#X connect 2 0 24 0;
#X connect 2 0 25 0;
#X connect 3 0 6 0;
#X connect 3 0 5 0;
#X connect 4 0 17 0;
#X connect 7 0 8 0;
#X connect 7 0 16 0;
#X connect 7 0 34 0;
#X connect 8 0 6 0;
#X connect 9 0 6 0;
#X connect 10 0 11 0;
#X connect 11 0 31 0;
#X connect 11 0 27 0;
#X connect 11 0 28 0;
#X connect 11 0 32 0;
#X connect 12 0 18 0;
#X connect 14 0 10 0;
#X connect 15 0 13 0;
#X connect 15 0 6 0;
#X connect 17 0 3 0;
#X connect 18 0 15 0;
#X connect 20 0 22 0;
#X connect 21 0 23 0;
#X connect 22 0 20 1;
#X connect 22 0 25 2;
#X connect 23 0 21 1;
#X connect 23 0 25 1;
#X connect 24 0 19 0;
#X connect 25 0 3 1;
#X connect 25 0 4 0;
#X connect 27 0 29 0;
#X connect 28 0 30 0;
#X connect 29 0 27 1;
#X connect 29 0 32 2;
#X connect 30 0 28 1;
#X connect 30 0 32 1;
#X connect 31 0 26 0;
#X connect 32 0 12 0;
#X connect 32 0 15 1;
#X connect 33 0 21 1;
#X connect 33 0 28 1;
#X connect 34 0 33 0;
