#N canvas 104 300 554 409 12;
#X obj 31 18 adc~ 1;
#X obj 32 48 env~;
#X floatatom 32 73 5 0 0 0 - - - 0;
#X obj 32 174 pack f f;
#X msg 32 149 1;
#X obj 32 122 t f;
#X obj 32 208 print;
#X obj 87 334 netsend -u;
#X obj 87 254 loadbang;
#X msg 87 281 connect localhost 5000;
#X msg 164 306 disconnect;
#X obj 227 44 env~;
#X floatatom 227 69 5 0 0 0 - - - 0;
#X obj 228 122 t f;
#X obj 228 208 print;
#X obj 226 18 adc~ 2;
#X msg 228 149 2;
#X obj 228 174 pack f f;
#X obj 228 96 expr floor($f1/100*1024);
#X obj 31 98 expr floor($f1/100*1024);
#X connect 0 0 1 0;
#X connect 1 0 2 0;
#X connect 2 0 5 0;
#X connect 2 0 19 0;
#X connect 3 0 7 0;
#X connect 3 0 6 0;
#X connect 4 0 3 0;
#X connect 5 0 4 0;
#X connect 8 0 9 0;
#X connect 9 0 7 0;
#X connect 10 0 7 0;
#X connect 11 0 12 0;
#X connect 12 0 13 0;
#X connect 12 0 18 0;
#X connect 13 0 16 0;
#X connect 15 0 11 0;
#X connect 16 0 17 0;
#X connect 17 0 14 0;
#X connect 17 0 7 0;
#X connect 18 0 17 1;
#X connect 19 0 3 1;
